<svg xmlns="http://www.w3.org/2000/svg" width="256" height="256" viewBox="0 0 256 256">
  <defs>
    <linearGradient id="grad" x1="0%" y1="0%" x2="100%" y2="100%">
      <stop offset="0%" style="stop-color:#667eea;stop-opacity:1" />
      <stop offset="100%" style="stop-color:#764ba2;stop-opacity:1" />
    </linearGradient>
  </defs>
  <rect width="256" height="256" rx="60" fill="url(#grad)"/>
  <path d="M128 50c-20 0-36 16-36 36v56c0 20 16 36 36 36s36-16 36-36V86c0-20-16-36-36-36zm48 92c0 26.5-21.5 48-48 48s-48-21.5-48-48H64c0 35.3 25.6 64.6 59.2 69.8V226h-16v16h64v-16h-16v-14.2c33.6-5.2 59.2-34.5 59.2-69.8h-16z" fill="white"/>
</svg>
